<svg xmlns="http://www.w3.org/2000/svg" xmlns:xlink="http://www.w3.org/1999/xlink" version="1.1" x="0px" y="0px" viewBox="0 0 100 100" enable-background="new 0 0 100 100" xml:space="preserve"><path fill-rule="evenodd" clip-rule="evenodd" d="M49.71,1.275c6.892,12.017,10.563,24.197,12.493,37.072  c2.271,15.14-0.751,29.887-3.196,44.595c-0.627,3.783-4.636,6.721-2.466,11.658c0.813,1.846-5.873,4.342-9.515,3.405  c-3.932-1.008-5.132-2.96-3.856-6.616c0.816-2.336,1.897-4.526-1.759-5.386c-0.99-0.236-1.012-1.295-1.179-2.194  c-4.284-23.113-6.442-46.144,2.695-68.72c1.389-3.43,3-6.772,4.574-10.124C47.995,3.911,48.695,2.951,49.71,1.275z"></path><path fill-rule="evenodd" clip-rule="evenodd" d="M63.842,63.385c4.94,12.321,9.468,23.602,13.994,34.89  c-0.239,0.138-0.479,0.279-0.718,0.421c-5.002-4.135-9.961-8.313-15.021-12.369c-1.785-1.429-1.291-3.112-1.03-4.839  C61.927,75.801,62.809,70.12,63.842,63.385z"></path><path fill-rule="evenodd" clip-rule="evenodd" d="M21.498,97.999c4.447-11.023,8.894-22.047,13.341-33.073  c0.305-0.007,0.606-0.015,0.911-0.025c0.838,6.432,1.687,12.862,2.506,19.297c0.127,0.997-0.584,1.69-1.241,2.238  c-4.875,4.048-9.79,8.045-14.694,12.057C22.046,98.329,21.773,98.166,21.498,97.999z"></path></svg>