<svg xmlns="http://www.w3.org/2000/svg" xmlns:xlink="http://www.w3.org/1999/xlink" version="1.1" x="0px" y="0px" viewBox="0 0 109 109" style="enable-background:new 0 0 109 109;" xml:space="preserve"><style type="text/css">

	.st0{fill:#1D1D1B;}

</style><path class="st0" d="M46.112,18.538c0-4.633,3.755-8.389,8.388-8.389c4.635,0,8.39,3.756,8.39,8.389c0,4.636-3.755,8.39-8.39,8.39  C49.867,26.928,46.112,23.174,46.112,18.538z M80.191,28.645c-1.681-1.343-4.132-1.072-5.478,0.607l-4.514,5.639l-2.617-6.372  c-0.498-1.205-1.561-2.083-2.84-2.34c-1.277-0.257-2.599,0.142-3.521,1.065l-1.365,1.366H49.147l-1.367-1.366  c-0.921-0.923-2.243-1.322-3.521-1.065c-1.279,0.256-2.341,1.135-2.838,2.34l-2.618,6.372l-4.515-5.639  c-1.344-1.679-3.796-1.95-5.479-0.607c-1.679,1.343-1.95,3.795-0.606,5.476l8.648,10.805c0.747,0.931,1.869,1.459,3.042,1.459  c0.183,0,0.369-0.012,0.553-0.038c1.367-0.199,2.528-1.1,3.051-2.378l2.459-5.992v18.728c0,0.059,0.01,0.109,0.019,0.164v37.985  c0,2.152,1.743,3.896,3.894,3.896c2.154,0,3.899-1.745,3.899-3.896V58.007h1.533v36.847c0,2.152,1.746,3.896,3.897,3.896  s3.896-1.745,3.896-3.896V56.333c0-0.207-0.022-0.411-0.052-0.61V37.977l2.459,5.992c0.525,1.278,1.685,2.179,3.05,2.378  c0.186,0.026,0.37,0.038,0.555,0.038c1.172,0,2.296-0.53,3.042-1.459l8.648-10.805C82.141,32.44,81.871,29.988,80.191,28.645z"></path></svg>