<?xml version="1.0" encoding="utf-8"?>
<!-- Generator: Adobe Illustrator 15.0.0, SVG Export Plug-In . SVG Version: 6.00 Build 0)  -->
<!DOCTYPE svg PUBLIC "-//W3C//DTD SVG 1.1//EN" "http://www.w3.org/Graphics/SVG/1.1/DTD/svg11.dtd">
<svg version="1.1" xmlns="http://www.w3.org/2000/svg" xmlns:xlink="http://www.w3.org/1999/xlink" x="0px" y="0px"
	 width="551.141px" height="157.467px" viewBox="0 0 551.141 157.467" enable-background="new 0 0 551.141 157.467"
	 xml:space="preserve">
<g id="Dashes_1_">
	<path fill="#4D4D4D" d="M385.2,62.794l-0.707-0.707c2.864-2.864,6.018-5.43,9.372-7.625l0.547,0.837
		C391.115,57.457,388.016,59.978,385.2,62.794z M454.65,53.75c-3.418-1.994-7.059-3.635-10.822-4.879l0.314-0.949
		c3.829,1.266,7.533,2.937,11.012,4.964L454.65,53.75z M412.537,47.514l-0.23-0.973c3.917-0.927,7.948-1.449,11.982-1.552l0.025,1
		C420.35,46.09,416.387,46.603,412.537,47.514z"/>
	<path fill="#4D4D4D" d="M255.2,64.794l-0.707-0.707c2.845-2.845,5.896-5.521,9.066-7.953l0.609,0.794
		C261.031,59.333,258.015,61.979,255.2,64.794z M380.849,63.502c-2.871-2.758-5.94-5.341-9.123-7.679l0.592-0.806
		c3.218,2.364,6.321,4.976,9.225,7.763L380.849,63.502z M281.164,46.675l-0.418-0.908c3.641-1.675,7.432-3.122,11.267-4.298
		l0.293,0.956C288.513,43.588,284.765,45.019,281.164,46.675z M354.529,45.927c-3.63-1.581-7.405-2.934-11.224-4.02l0.273-0.962
		c3.86,1.099,7.679,2.466,11.349,4.064L354.529,45.927z M311.811,38.739l-0.076-0.997c3.994-0.305,8.057-0.347,12.056-0.122
		l-0.057,0.998C319.78,38.397,315.761,38.438,311.811,38.739z"/>
	<g>
		<g>
			<path fill="#4D4D4D" d="M252.18,62.931c-1.414-1.414-2.866-2.806-4.316-4.14l0.678-0.736c1.46,1.343,2.922,2.746,4.346,4.169
				L252.18,62.931z"/>
		</g>
		<g>
			<path fill="#4D4D4D" d="M162.487,21.99c3.924,0.271,7.883,0.713,11.768,1.313l0.152-0.988c-3.912-0.605-7.899-1.05-11.851-1.323
				L162.487,21.99z"/>
			<path fill="#4D4D4D" d="M130.843,22.349l0.153,0.988c3.882-0.602,7.841-1.048,11.767-1.326l-0.07-0.997
				C138.739,21.293,134.752,21.743,130.843,22.349z"/>
			<path fill="#4D4D4D" d="M222.928,39.294l-0.497,0.868c3.412,1.953,6.783,4.077,10.02,6.312l0.568-0.823
				C229.759,43.4,226.364,41.262,222.928,39.294z"/>
			<path fill="#4D4D4D" d="M193.487,27.682c3.762,1.14,7.522,2.456,11.177,3.911l0.37-0.929c-3.681-1.466-7.468-2.791-11.257-3.939
				L193.487,27.682z"/>
		</g>
	</g>
</g>
<g id="Principia">
	<g>
		<rect x="135.351" y="56.768" fill="none" width="415.79" height="92.214"/>
		<path fill="#4D4D4D" d="M173.253,106.066h-19.801v20.601h-13.201V56.663c11,0,22.001-0.1,33.002-0.1
			C207.455,56.562,207.555,106.066,173.253,106.066z M153.452,93.965h19.801c16.901,0,16.801-24.801,0-24.801h-19.801V93.965z"/>
		<path fill="#4D4D4D" d="M216.151,77.364l0.9,5.701c3.8-6.101,8.9-7,13.901-7c5.1,0,10,2,12.701,4.7l-5.501,10.601
			c-2.5-2.1-4.8-3.2-8.8-3.2c-6.4,0-12.301,3.4-12.301,12.501v26.001h-12.201V77.364H216.151z"/>
		<path fill="#4D4D4D" d="M261.551,63.463c0,9.5-14.4,9.5-14.4,0C247.15,53.962,261.551,53.962,261.551,63.463z M248.25,77.164
			v49.503h12.201V77.164H248.25z"/>
		<path fill="#4D4D4D" d="M307.752,126.667v-25.802c0-7.5-4.102-13.201-11.902-13.201c-7.5,0-12.6,6.3-12.6,13.801v25.202h-12.102
			V77.264h10.9l0.801,6.7c5-4.9,10-7.4,16.201-7.4c11.602,0,20.9,8.701,20.9,24.202v25.901H307.752z"/>
		<path fill="#4D4D4D" d="M372.752,120.367c-5.701,5.6-11.701,7.8-19.002,7.8c-14.301,0-26.201-8.601-26.201-26.102
			s11.9-26.102,26.201-26.102c7,0,12.4,2,17.801,7.3l-7.699,8.101c-2.9-2.6-6.5-3.9-9.9-3.9c-8.201,0-14.201,6-14.201,14.601
			c0,9.401,6.4,14.401,14,14.401c3.9,0,7.801-1.1,10.801-4.1L372.752,120.367z"/>
		<path fill="#4D4D4D" d="M391.449,63.463c0,9.5-14.4,9.5-14.4,0C377.049,53.962,391.449,53.962,391.449,63.463z M378.148,77.164
			v49.503h12.201V77.164H378.148z"/>
		<path fill="#4D4D4D" d="M401.348,147.268V77.364h11.4l0.801,6.801c3.799-5.5,10.4-7.9,16-7.9c15.201,0,25.303,11.3,25.303,25.801
			c0,14.401-9.102,25.802-24.902,25.802c-5.201,0-12.9-1.6-16.4-7v26.401H401.348z M442.65,102.065
			c0-7.7-5.201-14.001-14.002-14.001s-14,6.301-14,14.001c0,7.701,5.699,14.001,14,14.001S442.65,109.766,442.65,102.065z"/>
		<path fill="#4D4D4D" d="M477.148,63.463c0,9.5-14.4,9.5-14.4,0C462.748,53.962,477.148,53.962,477.148,63.463z M463.848,77.164
			v49.503h12.201V77.164H463.848z"/>
		<path fill="#4D4D4D" d="M526.148,77.364h11.701v49.303h-11.5l-0.602-7.201c-2.799,5.801-10.5,8.6-16,8.701
			c-14.602,0.101-25.402-8.9-25.402-26.202c0-17.001,11.301-25.901,25.703-25.801c6.6,0,12.9,3.1,15.699,8L526.148,77.364z
			 M496.547,101.965c0,9.401,6.5,15.001,14.602,15.001c19.201,0,19.201-29.902,0-29.902
			C503.047,87.064,496.547,92.565,496.547,101.965z"/>
	</g>
	<circle fill="#0071BC" cx="469.52" cy="63.414" r="7.573"/>
	<circle fill="#0071BC" cx="254.52" cy="63.414" r="7.573"/>
	<circle fill="#0071BC" cx="384.52" cy="63.414" r="7.573"/>
</g>
<g id="Logo">
	<g>
		<path fill="#4D4D4D" d="M79.076,78.562l-5.185-15.951c-0.689,0.09-1.388,0.152-2.102,0.152c-3.232,0-6.236-0.959-8.762-2.591
			L50.294,72.947c0.783,1.65,1.233,3.488,1.233,5.436c0,0.76-0.079,1.501-0.207,2.225l20.132,5.88
			C73.143,83.143,75.808,80.377,79.076,78.562z"/>
		<path fill="#4D4D4D" d="M27,19v16h-0.296H12v91h115V19H27z M88.135,113.599c-10.322,0-18.689-8.369-18.689-18.69
			c0-0.724,0.045-1.436,0.125-2.138l-21.077-6.155c-2.332,2.74-5.802,4.483-9.682,4.483c-7.023,0-12.717-5.693-12.717-12.716
			s5.693-12.717,12.717-12.717c2.686,0,5.174,0.838,7.227,2.26L58.343,55.58c-1.724-2.572-2.731-5.665-2.731-8.993
			c0-8.935,7.242-16.177,16.177-16.177c8.934,0,16.177,7.243,16.177,16.177c0,5.896-3.166,11.04-7.879,13.868l5.194,15.982
			c0.931-0.143,1.883-0.217,2.853-0.217c10.321,0,18.689,8.368,18.689,18.689C106.824,105.23,98.456,113.599,88.135,113.599z"/>
	</g>
	<rect x="8.446" y="16.156" fill="#0071BC" width="16.398" height="16.398"/>
	<rect x="-0.331" y="6.625" fill="#0071BC" width="8.199" height="8.199"/>
	<rect x="9.099" y="0.475" fill="#0071BC" width="5.739" height="5.739"/>
	<path display="none" fill="#4D4D4D" d="M88.135,76.22c-0.97,0-1.922,0.074-2.853,0.217l-5.194-15.982
		c4.713-2.828,7.879-7.972,7.879-13.868c0-8.935-7.243-16.177-16.177-16.177c-8.935,0-16.177,7.243-16.177,16.177
		c0,3.329,1.008,6.421,2.731,8.993L46.038,67.926c-2.053-1.422-4.541-2.26-7.227-2.26c-7.023,0-12.717,5.693-12.717,12.717
		S31.788,91.1,38.812,91.1c3.88,0,7.35-1.744,9.682-4.484l21.077,6.156c-0.08,0.701-0.125,1.414-0.125,2.138
		c0,10.321,8.367,18.69,18.689,18.69c10.321,0,18.689-8.369,18.689-18.69S98.456,76.22,88.135,76.22z M71.453,86.487l-20.132-5.88
		c0.128-0.723,0.207-1.465,0.207-2.225c0-1.947-0.451-3.785-1.233-5.436l12.732-12.774c2.526,1.632,5.53,2.591,8.762,2.591
		c0.714,0,1.413-0.062,2.102-0.152l5.185,15.951C75.808,80.377,73.143,83.143,71.453,86.487z"/>
	<path display="none" fill="#FFFFFF" d="M88.135,76.22c-0.97,0-1.922,0.074-2.853,0.217l-5.194-15.982
		c4.713-2.828,7.879-7.972,7.879-13.868c0-8.935-7.243-16.177-16.177-16.177c-8.935,0-16.177,7.243-16.177,16.177
		c0,3.329,1.008,6.421,2.731,8.993L46.038,67.926c-2.053-1.422-4.541-2.26-7.227-2.26c-7.023,0-12.717,5.693-12.717,12.717
		S31.788,91.1,38.812,91.1c3.88,0,7.35-1.744,9.682-4.484l21.077,6.156c-0.08,0.701-0.125,1.414-0.125,2.138
		c0,10.321,8.367,18.69,18.689,18.69c10.321,0,18.689-8.369,18.689-18.69S98.456,76.22,88.135,76.22z M71.453,86.487l-20.132-5.88
		c0.128-0.723,0.207-1.465,0.207-2.225c0-1.947-0.451-3.786-1.233-5.436l12.732-12.774c2.526,1.632,5.53,2.591,8.762,2.591
		c0.714,0,1.413-0.062,2.102-0.152l5.185,15.951C75.808,80.377,73.143,83.143,71.453,86.487z"/>
</g>
</svg>
